<svg id="Слой_1" data-name="Слой 1" xmlns="http://www.w3.org/2000/svg" viewBox="0 0 20 16">
  <defs>
    <style>
      .cls-1 {
        fill: #d9dee1;
      }
    </style>
  </defs>
  <title>glass_gray</title>
  <path class="cls-1" d="M20,11.54a4.35,4.35,0,0,0-.1-0.91L18.78,0.79A0.9,0.9,0,0,0,17.88,0H15.45a0.9,0.9,0,0,0-.91.89,0.9,0.9,0,0,0,.91.89h1.61l0.67,5.94a4.59,4.59,0,0,0-2.29-.61A4.53,4.53,0,0,0,11,10.67H9A4.53,4.53,0,0,0,4.55,7.11a4.59,4.59,0,0,0-2.29.61L2.93,1.78H4.55A0.9,0.9,0,0,0,5.45.89,0.9,0.9,0,0,0,4.55,0H2.12a0.9,0.9,0,0,0-.9.79L0.1,10.63a4.35,4.35,0,0,0-.1.91H0A4.5,4.5,0,0,0,4.55,16,4.53,4.53,0,0,0,9,12.44h2a4.56,4.56,0,0,0,9-.89h0ZM4.55,14.22A2.7,2.7,0,0,1,1.82,11.6l0.08-.67A2.72,2.72,0,1,1,4.55,14.22Zm10.91,0a2.67,2.67,0,1,1,0-5.33,2.75,2.75,0,0,1,1.65.54,2.67,2.67,0,0,1,1,1.5l0.08,0.67A2.7,2.7,0,0,1,15.45,14.22Z" transform="translate(0 0)"/>
</svg>
